<svg id="logo_255x59" xmlns="http://www.w3.org/2000/svg" width="255" height="59" viewBox="0 0 255 59">
  <path id="Path_106" data-name="Path 106" d="M78.393,146.219H74.228l-8.794,20.675h4.6l1.877-4.6H80.6l1.877,4.6h4.721ZM73.529,158.3l2.727-6.656,2.727,6.656Z" transform="translate(-0.434 -116.985)" fill="#14213c"/>
  <path id="Path_107" data-name="Path 107" d="M118.457,146.449h-8v20.525h8c6.454,0,10.913-4.485,10.913-10.266v-.059C129.37,150.876,124.911,146.449,118.457,146.449Zm6.192,10.318a5.857,5.857,0,0,1-6.192,6.133h-3.485V150.523h3.485a5.9,5.9,0,0,1,6.192,6.186Z" transform="translate(-16.433 -117.065)" fill="#14213c"/>
  <path id="Path_108" data-name="Path 108" d="M152.423,146.444h4.868l5.4,8.68,5.4-8.68h4.868v20.528h-4.487v-13.4l-5.777,8.768h-.117l-5.718-8.68v13.314h-4.428Z" transform="translate(-31.355 -117.063)" fill="#14213c"/>
  <path id="Path_109" data-name="Path 109" d="M207.8,145.909a10.614,10.614,0,0,0-10.939,10.612v.059a10.915,10.915,0,0,0,21.819-.059v-.059A10.52,10.52,0,0,0,207.8,145.909Zm6.153,10.671a6.137,6.137,0,0,1-6.153,6.395,6.233,6.233,0,0,1-6.218-6.454v-.059a6.133,6.133,0,0,1,6.159-6.388,6.23,6.23,0,0,1,6.212,6.447Z" transform="translate(-47.161 -116.868)" fill="#14213c"/>
  <path id="Path_110" data-name="Path 110" d="M243.27,146.444h4.516v16.423h10.235v4.106H243.27Z" transform="translate(-63.593 -117.063)" fill="#f9a21b"/>
  <rect id="Rectangle_23" data-name="Rectangle 23" width="4.516" height="20.528" transform="translate(202.334 29.381)" fill="#f9a21b"/>
  <path id="Path_111" data-name="Path 111" d="M303.9,150.608h-6.247v-4.164h17.009v4.164h-6.246v16.364H303.9Z" transform="translate(-83.265 -117.063)" fill="#f9a21b"/>
  <path id="Path_112" data-name="Path 112" d="M335.858,146.444h15.484v4.018h-11v4.164h9.678v4.018h-9.678v4.311h11.144v4.018H335.858Z" transform="translate(-96.488 -117.063)" fill="#f9a21b"/>
  <path id="Path_113" data-name="Path 113" d="M227.072,89.244a41.674,41.674,0,0,1-7.32,6.252l2.858,7.019h10.11Zm-23.612-5.113,5.857-14.269,4.9,11.991a33.145,33.145,0,0,0,6.507-7.553L213.9,58.243h-8.924L190.33,92.637a49.91,49.91,0,0,0,21.032-8.506Z" transform="translate(-186.168 -43.89)" fill="#14213c"/>
  <path id="Path_114" data-name="Path 114" d="M183.473,130.577l-.023.046h1.58C184.5,130.623,183.985,130.623,183.473,130.577Z" transform="translate(-183.15 -72.374)" fill="#fff"/>
  <path id="Path_115" data-name="Path 115" d="M231.2,58.15a29.3,29.3,0,0,1-7.762,19.465,39.323,39.323,0,0,1-7.251,6.4,52.553,52.553,0,0,1-22.589,8.6,60.37,60.37,0,0,1-8.552.605c-.534,0-1.046,0-1.557-.046l3.115-7.326a51.427,51.427,0,0,0,25.843-11.023c.023,0,.023,0,.046-.023a36.793,36.793,0,0,0,6.647-7.256,27.965,27.965,0,0,0-.326-33.325C226.505,40.5,231.2,48.918,231.2,58.15Z" transform="translate(-183.488 -34.22)" fill="#f9a21b"/>
</svg>
